<svg xmlns="http://www.w3.org/2000/svg" xmlns:xlink="http://www.w3.org/1999/xlink" preserveAspectRatio="none" width="888" height="400"><defs><g id="a"><path fill="#555" d="M501.2 197.8q-1.2-.55-2.7-.55-1.6 0-2.9.55-1.3.5-2.2 1.45-.9.95-1.4 2.35-.5 1.35-.5 3.1 0 1.65.5 2.95.45 1.35 1.35 2.3.85.95 2.1 1.45 1.25.55 2.8.55 1.55 0 2.85-.55 1.25-.55 2.1-1.5.9-1 1.35-2.3.5-1.35.5-3 0-1.75-.45-3.1t-1.3-2.3q-.85-.95-2.1-1.4m-4.9 1.4q.9-.4 2.05-.4 2.35 0 3.6 1.5t1.25 4.3q0 1.4-.3 2.45-.3 1.1-.95 1.85-.65.75-1.55 1.15-.9.35-2.05.35t-2.1-.35q-.9-.45-1.55-1.2t-1-1.8q-.35-1.05-.35-2.35 0-1.4.35-2.5t1-1.85q.65-.75 1.6-1.15m-7.85-1.6h-1.75v2.1h-.05q-1.35-2.45-4.3-2.45-1.5 0-2.65.6-1.2.55-2.05 1.55-.85 1-1.3 2.4-.45 1.45-.45 3.15 0 1.65.45 2.95.4 1.25 1.2 2.15.75.9 1.85 1.4 1.05.5 2.35.5 3.3 0 4.9-2.8h.05v1.7q0 5.8-5.45 5.8-2.05 0-4.35-1.3v1.8q2.05 1.05 4.35 1.05 3.7 0 5.45-1.9t1.75-5.8v-12.9m-4.25 1.55q.75.35 1.35.9.55.6.85 1.4.3.75.3 1.65v2.4q0 1.05-.3 1.95-.35.9-.95 1.55t-1.45 1.05q-.85.35-1.85.35t-1.85-.35q-.8-.4-1.35-1.15-.6-.7-.9-1.75-.3-1.05-.3-2.35 0-1.4.3-2.5.35-1.1 1-1.9.6-.75 1.5-1.2.85-.4 1.95-.4.95 0 1.7.35M473 209.6q-.2-.15-.4-.25-.25-.1-.55-.1-.55 0-.9.35-.4.4-.4.95 0 .55.4.95.35.35.9.35.3 0 .55-.05l.4-.3.3-.4q.1-.25.1-.55 0-.3-.1-.5-.15-.25-.3-.45z"/><path fill="#333" d="M458.7 197.6h-4.35v14h4.35v-8q0-1.3.7-2.15.75-.9 1.85-.9 2.35 0 2.35 3.25v7.8h4.3v-8.55q0-5.8-4.65-5.8-2.95 0-4.5 2.55h-.05v-2.2m-13.2-.35q-1.3 0-2.85.35-1.6.35-2.5.85v3.25q2.25-1.5 4.75-1.5t2.5 2.3l-3.8.5q-4.8.65-4.8 4.7 0 1.95 1.15 3.1 1.15 1.15 3.2 1.15 2.75 0 4.15-2.35h.1v2h4.05v-8.35q0-6-5.95-6m1.9 8.65q0 1.3-.75 2.15-.75.85-2 .85-.85 0-1.35-.5-.55-.45-.55-1.2 0-1.65 2.1-1.9l2.55-.35v.95m-9.9-8q-1.15-.65-3.6-.65-3.6 0-5.7 2.05-2.15 2.05-2.15 5.65 0 3.1 2 5.05 2 1.95 5.2 1.95 2.75 0 4.25-.85v-3.5q-1.55 1.05-3.2 1.05-1.8 0-2.85-1.05-1.05-1.1-1.05-2.95 0-1.9 1.1-3t2.95-1.1q1.65 0 3.05 1.05v-3.7m-13.45-.1q-.95-.25-1.9-.4-.95-.15-1.85-.15-1.2 0-2.3.25-1.1.25-1.95.8-.85.55-1.4 1.4-.5.85-.5 2 0 .9.25 1.5.2.65.65 1.1.4.5 1.05.85t1.45.7q.55.2 1.1.35.55.15 1.05.35.45.2.75.5.3.25.3.7 0 .6-.65.95-.65.3-1.8.3-.95 0-2-.3-1.1-.35-2.15-.95v3.5q1.95.7 4.3.7 1.25 0 2.4-.25 1.2-.25 2.1-.8.85-.55 1.4-1.45.55-.9.55-2.15 0-.85-.25-1.5-.3-.65-.8-1.15-.5-.45-1.2-.8-.7-.35-1.55-.65-.45-.2-.95-.35-.5-.15-.9-.35-.4-.2-.65-.45-.2-.3-.2-.7 0-.25.15-.5.15-.2.45-.35.3-.15.65-.2.4-.1.8-.1.9 0 1.85.25.95.25 1.75.7v-3.35m-12.1-6.95h-4.35v20.75h4.35v-20.75m-7.15 6.95q-.95-.25-1.9-.4-.95-.15-1.85-.15-1.2 0-2.3.25-1.1.25-1.95.8-.85.55-1.4 1.4-.5.85-.5 2 0 .9.25 1.5.2.65.65 1.1.4.5 1.05.85t1.45.7q.55.2 1.1.35.55.15 1.05.35.45.2.75.5.3.25.3.7 0 .6-.65.95-.65.3-1.8.3-.95 0-2-.3-1.1-.35-2.15-.95v3.5q1.95.7 4.3.7 1.25 0 2.4-.25 1.2-.25 2.1-.8.85-.55 1.4-1.45.55-.9.55-2.15 0-.85-.25-1.5-.3-.65-.8-1.15-.5-.45-1.2-.8-.7-.35-1.55-.65-.45-.2-.95-.35-.5-.15-.9-.35-.4-.2-.65-.45-.2-.3-.2-.7 0-.25.15-.5.15-.2.45-.35.3-.15.65-.2.4-.1.8-.1.9 0 1.85.25.95.25 1.75.7v-3.35m-11.8 0q-.95-.25-1.9-.4-.95-.15-1.85-.15-1.2 0-2.3.25-1.1.25-1.95.8-.85.55-1.4 1.4-.5.85-.5 2 0 .9.25 1.5.2.65.65 1.1.4.5 1.05.85t1.45.7q.55.2 1.1.35.55.15 1.05.35.45.2.75.5.3.25.3.7 0 .6-.65.95-.65.3-1.8.3-.95 0-2-.3-1.1-.35-2.15-.95v3.5q1.95.7 4.3.7 1.25 0 2.4-.25 1.2-.25 2.1-.8.85-.55 1.4-1.45.55-.9.55-2.15 0-.85-.25-1.5-.3-.65-.8-1.15-.5-.45-1.2-.8-.7-.35-1.55-.65-.45-.2-.95-.35-.5-.15-.9-.35-.4-.2-.65-.45-.2-.3-.2-.7 0-.25.15-.5.15-.2.45-.35.3-.15.65-.2.4-.1.8-.1.9 0 1.85.25.95.25 1.75.7v-3.35z"/></g></defs><use xlink:href="#a"/></svg>