<svg width="914" height="400" fill="none" xmlns="http://www.w3.org/2000/svg"><style>#CL0 {fill: #00ACD7;}#CL1 {fill: #333;}@media (prefers-color-scheme: dark) {#CL0 {fill: #00ACD7;}#CL1 {fill: #EEE;}}</style><path d="M385.851 208.28c-1.27 0-2.38-.196-3.332-.588-.952-.411-1.699-.971-2.24-1.68-.523-.709-.784-1.54-.784-2.492h4.116c0 .523.196.915.588 1.176.392.261.942.392 1.652.392h1.232c.765 0 1.353-.131 1.764-.392.429-.261.644-.635.644-1.12 0-.467-.168-.803-.504-1.008-.336-.224-.85-.373-1.54-.448l-3.528-.42c-1.363-.168-2.408-.672-3.136-1.512-.728-.859-1.092-1.923-1.092-3.192 0-1.549.504-2.716 1.512-3.5 1.008-.784 2.501-1.176 4.48-1.176h1.316c1.885 0 3.388.411 4.508 1.232s1.68 1.923 1.68 3.304h-4.116c0-.448-.187-.793-.56-1.036-.355-.243-.859-.364-1.512-.364h-1.316c-.654 0-1.148.121-1.484.364-.336.243-.504.579-.504 1.008 0 .429.158.719.476.868.336.149.802.261 1.4.336l3.36.42c1.512.187 2.65.719 3.416 1.596.765.877 1.148 2.035 1.148 3.472 0 1.512-.542 2.688-1.624 3.528-1.083.821-2.679 1.232-4.788 1.232h-1.232Zm15.669 0c-1.27 0-2.38-.196-3.332-.588-.952-.411-1.699-.971-2.24-1.68-.523-.709-.784-1.54-.784-2.492h4.116c0 .523.196.915.588 1.176.392.261.942.392 1.652.392h1.232c.765 0 1.353-.131 1.764-.392.429-.261.644-.635.644-1.12 0-.467-.168-.803-.504-1.008-.336-.224-.85-.373-1.54-.448l-3.528-.42c-1.363-.168-2.408-.672-3.136-1.512-.728-.859-1.092-1.923-1.092-3.192 0-1.549.504-2.716 1.512-3.5 1.008-.784 2.501-1.176 4.48-1.176h1.316c1.885 0 3.388.411 4.508 1.232s1.68 1.923 1.68 3.304h-4.116c0-.448-.187-.793-.56-1.036-.355-.243-.859-.364-1.512-.364h-1.316c-.654 0-1.148.121-1.484.364-.336.243-.504.579-.504 1.008 0 .429.158.719.476.868.336.149.802.261 1.4.336l3.36.42c1.512.187 2.65.719 3.416 1.596.765.877 1.148 2.035 1.148 3.472 0 1.512-.542 2.688-1.624 3.528-1.083.821-2.679 1.232-4.788 1.232h-1.232Zm18.973-.28c-1.083 0-2.035-.224-2.856-.672a5.05 5.05 0 0 1-1.932-1.932c-.448-.821-.672-1.773-.672-2.856v-11.2h-4.9v-3.78h9.1v14.84c0 .541.149.98.448 1.316.317.336.728.504 1.232.504h4.34V208h-4.76Zm12.365.28c-1.269 0-2.38-.196-3.332-.588-.952-.411-1.699-.971-2.24-1.68-.523-.709-.784-1.54-.784-2.492h4.116c0 .523.196.915.588 1.176.392.261.943.392 1.652.392h1.232c.765 0 1.353-.131 1.764-.392.429-.261.644-.635.644-1.12 0-.467-.168-.803-.504-1.008-.336-.224-.849-.373-1.54-.448l-3.528-.42c-1.363-.168-2.408-.672-3.136-1.512-.728-.859-1.092-1.923-1.092-3.192 0-1.549.504-2.716 1.512-3.5 1.008-.784 2.501-1.176 4.48-1.176h1.316c1.885 0 3.388.411 4.508 1.232s1.68 1.923 1.68 3.304h-4.116c0-.448-.187-.793-.56-1.036-.355-.243-.859-.364-1.512-.364h-1.316c-.653 0-1.148.121-1.484.364-.336.243-.504.579-.504 1.008 0 .429.159.719.476.868.336.149.803.261 1.4.336l3.36.42c1.512.187 2.651.719 3.416 1.596.765.877 1.148 2.035 1.148 3.472 0 1.512-.541 2.688-1.624 3.528-1.083.821-2.679 1.232-4.788 1.232h-1.232Zm16.565 0c-1.363 0-2.557-.252-3.584-.756-1.027-.523-1.82-1.241-2.38-2.156-.56-.933-.84-2.016-.84-3.248v-3.64c0-1.251.28-2.333.84-3.248.56-.915 1.353-1.624 2.38-2.128 1.027-.523 2.221-.784 3.584-.784 2.035 0 3.659.513 4.872 1.54 1.213 1.027 1.857 2.427 1.932 4.2h-4.088c-.056-.653-.336-1.167-.84-1.54-.485-.373-1.111-.56-1.876-.56-.84 0-1.484.215-1.932.644-.448.429-.672 1.055-.672 1.876v3.64c0 .803.224 1.428.672 1.876.448.429 1.092.644 1.932.644.765 0 1.391-.177 1.876-.532.504-.373.784-.896.84-1.568h4.088c-.075 1.773-.719 3.173-1.932 4.2-1.213 1.027-2.837 1.54-4.872 1.54Zm13.429 0c-1.531 0-2.744-.439-3.64-1.316-.896-.896-1.344-2.063-1.344-3.5 0-1.045.243-1.941.728-2.688.504-.747 1.223-1.316 2.156-1.708.952-.411 2.091-.616 3.416-.616h3.024v-.98c0-.579-.205-1.027-.616-1.344-.392-.336-.961-.504-1.708-.504-.709 0-1.279.14-1.708.42-.411.28-.635.691-.672 1.232h-3.976c.056-1.512.653-2.716 1.792-3.612 1.139-.896 2.679-1.344 4.62-1.344 2.035 0 3.621.467 4.76 1.4 1.139.933 1.708 2.24 1.708 3.92V208h-4.06v-3.052h-.672l.756-.448c0 .765-.187 1.437-.56 2.016-.373.56-.905.999-1.596 1.316-.672.299-1.475.448-2.408.448Zm1.484-3.36c.877 0 1.568-.215 2.072-.644.523-.448.784-1.027.784-1.736v-1.568h-2.94c-.747 0-1.325.187-1.736.56-.392.355-.588.821-.588 1.4s.205 1.055.616 1.428c.429.373 1.027.56 1.792.56Zm9.621 3.08v-15.4h4.06v2.94h1.232l-1.372.98c.019-1.251.42-2.259 1.204-3.024.803-.784 1.829-1.176 3.08-1.176 1.493 0 2.688.523 3.584 1.568.915 1.045 1.372 2.436 1.372 4.172V208h-4.2v-9.52c0-.803-.215-1.419-.644-1.848-.411-.448-.989-.672-1.736-.672s-1.335.224-1.764.672c-.411.429-.616 1.045-.616 1.848V208h-4.2Z" id="CL1"/><path d="M496.178 208.28c-.709 0-1.288-.215-1.736-.644-.429-.429-.644-.98-.644-1.652 0-.709.215-1.288.644-1.736.448-.448 1.027-.672 1.736-.672.709 0 1.279.224 1.708.672.448.448.672 1.027.672 1.736 0 .672-.224 1.223-.672 1.652-.429.429-.999.644-1.708.644Zm11.721 4.76v-2.464h4.34c.84 0 1.512-.243 2.016-.728.504-.467.756-1.111.756-1.932v-1.288l.056-2.66h-.028c-.186.952-.644 1.689-1.372 2.212-.709.523-1.624.784-2.744.784-1.586 0-2.837-.504-3.752-1.512-.914-1.027-1.372-2.427-1.372-4.2v-3.164c0-1.773.458-3.173 1.372-4.2.915-1.045 2.166-1.568 3.752-1.568 1.083 0 1.979.261 2.688.784.728.523 1.195 1.241 1.4 2.156h.028v-2.66h2.716v15.344c0 1.568-.494 2.809-1.484 3.724-.989.915-2.333 1.372-4.032 1.372h-4.34Zm3.892-8.4c.99 0 1.774-.308 2.352-.924.579-.616.868-1.484.868-2.604v-2.884c0-1.101-.289-1.96-.868-2.576-.578-.616-1.362-.924-2.352-.924-1.026 0-1.82.299-2.38.896-.56.579-.84 1.372-.84 2.38v3.36c0 1.008.28 1.811.84 2.408.56.579 1.354.868 2.38.868Zm15.725 3.584c-1.885 0-3.388-.541-4.508-1.624-1.101-1.083-1.652-2.595-1.652-4.536v-3.528c0-1.941.551-3.453 1.652-4.536 1.12-1.083 2.623-1.624 4.508-1.624 1.886 0 3.379.541 4.48 1.624 1.12 1.083 1.68 2.595 1.68 4.536v3.528c0 1.941-.56 3.453-1.68 4.536-1.101 1.083-2.594 1.624-4.48 1.624Zm0-2.436c1.046 0 1.867-.289 2.464-.868.616-.597.924-1.465.924-2.604v-4.032c0-1.139-.308-1.997-.924-2.576-.597-.597-1.418-.896-2.464-.896-1.045 0-1.876.299-2.492.896-.597.579-.896 1.437-.896 2.576v4.032c0 1.139.299 2.007.896 2.604.616.579 1.447.868 2.492.868Z" id="CL0"/></svg>